<?xml version="1.0" encoding="utf-8"?>
<!-- Generator: Adobe Illustrator 22.0.1, SVG Export Plug-In . SVG Version: 6.00 Build 0)  -->
<svg version="1.1"
	 id="Layer_1" xmlns:cc="http://creativecommons.org/ns#" xmlns:dc="http://purl.org/dc/elements/1.1/" xmlns:inkscape="http://www.inkscape.org/namespaces/inkscape" xmlns:rdf="http://www.w3.org/1999/02/22-rdf-syntax-ns#" xmlns:sodipodi="http://sodipodi.sourceforge.net/DTD/sodipodi-0.dtd" xmlns:svg="http://www.w3.org/2000/svg"
	 xmlns="http://www.w3.org/2000/svg" xmlns:xlink="http://www.w3.org/1999/xlink" x="0px" y="0px" viewBox="0 0 79.5 92.5"
	 style="enable-background:new 0 0 79.5 92.5;" xml:space="preserve">
<g transform="translate(0,-952.36217)">
	<path d="M7.2,958.9v1.5v36.5l-0.1,38.4v1.5h1.5l25.6,0.1h36.2h1.5v-1.5v-60.5v-0.6l-0.4-0.4L57,959.3l-0.4-0.4H56H8.7H7.2z
		 M10.2,961.9h43l0,13.4v1.5h1.5h14.2v57.1H34.2l-24.1-0.1l0.1-36.9V961.9z M56.1,962.6l11.1,11.1c-3.7,0-7.4,0-11,0L56.1,962.6z
		 M19.5,981.4v3h40v-3H19.5z M19.5,991.3v3h40v-3H19.5z M19.5,1001.2v3h40v-3H19.5z M19.5,1011.2v3h40v-3H19.5z M19.5,1021.1v3h40
		v-3H19.5z"/>
</g>
</svg>
