<?xml version="1.0" encoding="utf-8"?>
<!-- Generator: Adobe Illustrator 22.0.1, SVG Export Plug-In . SVG Version: 6.00 Build 0)  -->
<svg version="1.1" id="Layer_1" xmlns="http://www.w3.org/2000/svg" xmlns:xlink="http://www.w3.org/1999/xlink" x="0px" y="0px"
	 viewBox="0 0 100 95" style="enable-background:new 0 0 100 95;" xml:space="preserve">
<style type="text/css">
	.st0{fill:#005EB8;}
</style>
<g>
	<path class="st0" d="M73.4,68.1L90,64L45.8,45.8L64,90l4.2-16.6l12.4,12.4c0.7,0.7,1.8,0.7,2.4,0l2.8-2.8c0.7-0.7,0.7-1.8,0-2.4
		L73.4,68.1z"/>
	<path class="st0" d="M54.6,76.1c0.3-0.4,0.6-0.8,0.8-1.2l-2.1-5.1c-2.3,4.8-5.1,7.6-7.5,7.6c-2.5,0-5.4-3-7.7-8
		c-1.1-2.3-2-4.9-2.6-7.8c3.3,0.5,6.8,0.7,10.4,0.7c1.5,0,3,0,4.4-0.1L48.6,58c-0.9,0-1.8,0-2.7,0c-3.9,0-7.7-0.3-11.3-0.9
		c-0.6-3.6-0.9-7.4-0.9-11.3s0.3-7.7,0.9-11.3c3.6-0.6,7.4-0.9,11.3-0.9s7.7,0.3,11.3,0.9c0.6,3.6,0.9,7.4,0.9,11.3
		c0,0.9,0,1.8,0,2.6l4.2,1.7c0.1-1.4,0.1-2.9,0.1-4.4c0-3.6-0.2-7.1-0.7-10.4c2.8,0.7,5.4,1.6,7.8,2.6c5,2.3,8,5.2,8,7.7
		s-2.8,5.3-7.5,7.5l5.1,2.1c0.4-0.3,0.8-0.5,1.2-0.8c-0.1,0.4-0.2,0.8-0.4,1.1l4,1.6c1.2-3.6,1.9-7.5,1.9-11.6
		C81.6,26,65.6,10,45.8,10S10,26,10,45.8s16,35.8,35.8,35.8c4.1,0,8-0.7,11.6-1.9l-1.6-4C55.4,75.8,55,75.9,54.6,76.1z M68.1,23.5
		c3.8,3.8,6.5,8.4,8,13.5c-3.7-2.7-9-4.8-15.3-6.2c-1.3-6.3-3.5-11.6-6.2-15.3C59.6,17,64.2,19.7,68.1,23.5z M45.8,14.3
		c2.5,0,5.4,3,7.7,8c1.1,2.3,2,4.9,2.6,7.8c-3.3-0.5-6.8-0.7-10.4-0.7c-3.6,0-7.1,0.2-10.4,0.7c0.7-2.8,1.6-5.4,2.6-7.8
		C40.3,17.3,43.2,14.3,45.8,14.3z M23.5,23.5c3.8-3.8,8.4-6.5,13.5-8c-2.7,3.7-4.8,9-6.2,15.3c-6.3,1.3-11.6,3.5-15.3,6.2
		C17,32,19.7,27.4,23.5,23.5z M22.3,38.1c2.3-1.1,4.9-2,7.8-2.6c-0.5,3.3-0.7,6.8-0.7,10.4c0,3.6,0.2,7.1,0.7,10.4
		c-2.8-0.7-5.4-1.6-7.8-2.6c-5-2.3-8-5.2-8-7.7S17.3,40.4,22.3,38.1z M23.5,68.1c-3.8-3.8-6.5-8.4-8-13.5c3.7,2.7,9,4.8,15.3,6.2
		c1.3,6.3,3.5,11.6,6.2,15.3C32,74.6,27.3,71.9,23.5,68.1z"/>
</g>
</svg>
